<?xml version="1.0" encoding="utf-8"?>
<!-- Generator: Adobe Illustrator 19.2.0, SVG Export Plug-In . SVG Version: 6.00 Build 0)  -->
<svg version="1.1" xmlns="http://www.w3.org/2000/svg" xmlns:xlink="http://www.w3.org/1999/xlink" x="0px" y="0px"
	 viewBox="0 0 1280 800" style="enable-background:new 0 0 1280 800;" xml:space="preserve">
<style type="text/css">
	.st0{fill:#204E61;}
	.st1{display:none;}
	.st2{display:inline;}
	.st3{fill:#EB4010;}
	.st4{fill:#C2350D;}
	.st5{fill:#255D8A;}
	.st6{fill:#3B96DE;}
	.st7{fill:#1E2E11;}
	.st8{fill:#DB3C0F;}
</style>
<g id="Layer_3">
	<rect x="-37.9" y="-1.9" class="st0" width="892.5" height="787.5"/>
</g>
<g id="Layer_1" class="st1">
	<g class="st2">
		<g>
			<path class="st3" d="M399.4,390.8c0,0,61.1,47.4,57.5,161.5C427,474.1,356.6,479,356.6,479"/>
			<path class="st4" d="M356,238c0,0,116.7,132.7,42.1,261c-11.7,9.2-31.1,13-42.1,13"/>
			<path class="st3" d="M356,234c0,0,117,127,41,263c-15.4,12-32,14-41,14"/>
		</g>
	</g>
	<g class="st2">
		<g>
			<path class="st3" d="M312.6,390.8c0,0-61.1,47.4-57.5,161.5c30-78.3,100.4-73.4,100.4-73.4"/>
			<path class="st4" d="M356,238c0,0-116.7,132.7-42.1,261c11.7,9.2,31.1,13,42.1,13"/>
			<path class="st3" d="M356,234c0,0-117,127-41,263c15.4,12,32,14,41,14"/>
		</g>
	</g>
</g>
<g id="Layer_2">
	<g>
		<g>
			<path class="st4" d="M513.3,179.8c0,0,59.1,45.4,55.5,159.5c-30-78.3-98.4-71.4-98.4-71.4"/>
			<path class="st4" d="M469.9,27c0,0,114.7,130.7,40.1,259c-21.9-2.8-29.1,10-40.1,10"/>
			<path class="st4" d="M469.9,23c0,0,107.3,118.3,31.3,254.3c-15.4,12-22.3,18.8-31.3,18.8"/>
		</g>
		<g>
			<path class="st4" d="M426.6,179.8c0,0-62.8,44.7-59.3,158.8c30-78.3,102.1-70.6,102.1-70.6"/>
			<path class="st4" d="M470,27c0,0-111.5,129.2-37,257.5c11.7,9.2,26,10.5,37,10.5"/>
			<path class="st4" d="M470,23c0,0-102.6,114.8-26.6,250.8c15.4,12,17.6,22.3,26.6,22.3"/>
		</g>
	</g>
	<g>
		<g>
			<path class="st4" d="M193.7,215.3c0,0-78.3-0.7-144,92.7c73.2-42.7,125.3,3.5,125.3,3.5"/>
			<path class="st4" d="M320.1,119.1c0,0-173.7,35.5-191.1,182.9c29.7,32.3,7.7,58.2,7.7,58.2"/>
			<path class="st4" d="M322.5,115.9c0,0-169.8,31.4-190.6,185.8c17.6,13.2,32.8,24.6,32.8,24.6"/>
		</g>
		<path class="st4" d="M263.1,267.3c0,0,22.6,73.8-51.9,161.8c23-80.6-35.3-116.9-35.3-116.9"/>
		<path class="st4" d="M320,119c0,0,14.5,176.8-122.1,234.7c-39.6-18.3-61.3,6.5-61.3,6.5"/>
		<path class="st4" d="M321.5,113.8c0,0,18.4,173.8-124,237c-17.6-13.2-32.7-24.5-32.7-24.5"/>
		<ellipse transform="matrix(0.6 -0.8 0.8 0.6 -61.924 286.4701)" class="st5" cx="255.5" cy="205.2" rx="25.1" ry="25.1"/>
		<ellipse transform="matrix(0.6 -0.8 0.8 0.6 -62.7702 288.4373)" class="st6" cx="257.1" cy="207" rx="25.7" ry="23.7"/>
		<path class="st7" d="M273,181.9c-12.9-9.7-31.1-7-40.8,5.8c-9.7,12.9-7,31.1,5.8,40.8s31.1,7,40.8-5.8
			C288.5,209.8,285.9,191.5,273,181.9z M240.5,225.2c-11.1-8.3-13.3-24-5-35.1c8.3-11.1,24-13.3,35.1-5c11.1,8.3,13.3,24,5,35.1
			C267.3,231.3,251.6,233.5,240.5,225.2z"/>
	</g>
	<g>
		<g>
			<path class="st3" d="M192.7,213.3c0,0-77.3,1.3-143,94.7c71-44.6,124.3,1.5,124.3,1.5"/>
			<path class="st4" d="M319.1,117.1c0,0-173.7,35.5-191.1,182.9c29.7,32.3,8.1,61.1,8.1,61.1"/>
			<path class="st3" d="M321.5,113.9c0,0-169.8,31.4-190.6,185.8c17.6,13.2,32.8,24.6,32.8,24.6"/>
		</g>
		<path class="st3" d="M262.1,265.3c0,0,20.4,74.6-50.9,163.8c23-80.6-36.3-118.9-36.3-118.9"/>
		<path class="st4" d="M319,117c0,0,14.5,176.8-122.1,234.7C157.6,332.2,136,361,136,361"/>
		<path class="st8" d="M321.5,113.8c0,0,17.4,171.8-125,235c-17.6-13.2-32.7-24.5-32.7-24.5"/>
		<ellipse transform="matrix(0.6 -0.8 0.8 0.6 -60.724 284.8701)" class="st5" cx="254.5" cy="203.2" rx="25.1" ry="25.1"/>
		<ellipse transform="matrix(0.6 -0.8 0.8 0.6 -61.5702 286.8374)" class="st6" cx="256.1" cy="205" rx="25.7" ry="23.7"/>
		<path class="st7" d="M272,179.9c-12.9-9.7-31.1-7-40.8,5.8c-9.7,12.9-7,31.1,5.8,40.8s31.1,7,40.8-5.8
			C287.5,207.8,284.9,189.5,272,179.9z M239.5,223.2c-11.1-8.3-13.3-24-5-35.1c8.3-11.1,24-13.3,35.1-5c11.1,8.3,13.3,24,5,35.1
			C266.3,229.3,250.6,231.5,239.5,223.2z"/>
	</g>
	<g>
		
			<ellipse transform="matrix(9.236943e-003 -1 1 9.236943e-003 23.0154 180.8449)" class="st5" cx="102.8" cy="78.8" rx="25.1" ry="25.1"/>
		
			<ellipse transform="matrix(9.236943e-003 -1 1 9.236943e-003 24.7634 183.7267)" class="st6" cx="105.1" cy="79.4" rx="25.7" ry="23.7"/>
		<path class="st7" d="M103,49.7C87,49.5,73.8,62.5,73.6,78.5c-0.1,16.1,12.8,29.2,28.9,29.4c16.1,0.1,29.2-12.8,29.4-28.9
			C132,63,119.1,49.8,103,49.7z M102.5,103.9c-13.8-0.1-25-11.5-24.8-25.3c0.1-13.8,11.5-25,25.3-24.8c13.8,0.1,25,11.5,24.8,25.3
			C127.7,92.9,116.4,104,102.5,103.9z"/>
	</g>
	<g>
		<g>
			<path class="st3" d="M513.3,177.8c0,0,61.1,47.4,57.5,161.5c-30-78.3-100.4-73.4-100.4-73.4"/>
			<path class="st4" d="M469.9,25c0,0,116.7,132.7,42.1,261c-11.7,9.2-31.1,14-42.1,14"/>
			<path class="st8" d="M469.9,21c0,0,117,127,41,263c-15.4,12-32,14-41,14"/>
		</g>
		<g>
			<path class="st3" d="M426.6,177.8c0,0-61.1,47.4-57.5,161.5c30-78.3,100.4-73.4,100.4-73.4"/>
			<path class="st4" d="M470,25c0,0-116.7,132.7-42.1,261c11.7,9.2,31.1,14,42.1,14"/>
			<path class="st3" d="M470,21c0,0-117,127-41,263c15.4,12,32,14,41,14"/>
		</g>
	</g>
	<g>
		
			<ellipse transform="matrix(9.236943e-003 -1 1 9.236943e-003 327.3651 604.019)" class="st5" cx="468.5" cy="136.8" rx="25.1" ry="25.1"/>
		
			<ellipse transform="matrix(9.236943e-003 -1 1 9.236943e-003 329.1131 606.9008)" class="st6" cx="470.8" cy="137.4" rx="25.7" ry="23.7"/>
		<path class="st7" d="M468.8,107.7c-16.1-0.1-29.2,12.8-29.4,28.9c-0.1,16.1,12.8,29.2,28.9,29.4c16.1,0.1,29.2-12.8,29.4-28.9
			C497.8,121,484.8,107.8,468.8,107.7z M468.3,161.9c-13.8-0.1-25-11.5-24.8-25.3c0.1-13.8,11.5-25,25.3-24.8
			c13.8,0.1,25,11.5,24.8,25.3C493.4,150.9,482.1,162,468.3,161.9z"/>
	</g>
	<g>
		<g>
			<path class="st4" d="M540.4,612.9c0,0,7.6,74.1-77.7,150c36.3-75.6-15.8-120.5-15.8-120.5"/>
			<path class="st4" d="M621.5,476.3c0,0-16.1,173.1-160.5,207.2c-13-17.8-27.3-14.3-34.8-22.3"/>
			<path class="st4" d="M624.4,473.5c0,0-12.1,159.2-163.1,197.5c-19.3-3-29-3.3-35.2-9.9"/>
		</g>
		<g>
			<path class="st4" d="M480.8,549.9c0,0-75.6-14.9-156,66.1c77.5-32.1,121.5,25.6,121.5,25.6"/>
			<path class="st4" d="M621.6,476.4c0,0-170.5,7.8-212.4,150.1c1.4,14.8,10.2,26.1,17.8,34.1"/>
			<path class="st4" d="M624.5,473.6c0,0-153.8,4.4-200.4,153.1c1.9,19.4-4.1,28.1,2.1,34.6"/>
		</g>
	</g>
	<g>
		<g>
			<path class="st3" d="M540.5,610c0,0,7.5,77-77.8,152.8C499,687.3,447,639.5,447,639.5"/>
			<path class="st4" d="M621.6,473.5c0,0-16.2,175.9-160.6,210c-14.7-2.2-31.6-13-39.1-21"/>
			<path class="st8" d="M624.5,470.7c0,0-11.8,172.3-162.8,210.6c-19.3-3-32.2-13.6-38.4-20.2"/>
		</g>
		<g>
			<path class="st3" d="M480.9,547.1c0,0-76.4-11.7-156.9,69.3c77.5-32.1,122.3,22.4,122.3,22.4"/>
			<path class="st4" d="M621.7,473.5c0,0-176.6,6.5-218.5,148.8c1.4,14.8,11.2,32.2,18.8,40.2"/>
			<path class="st3" d="M624.6,470.8c0,0-172.7,2.3-219.2,151c1.9,19.4,11.8,32.9,18,39.4"/>
		</g>
	</g>
	<g>
		
			<ellipse transform="matrix(0.7325 -0.6807 0.6807 0.7325 -230.261 515.4493)" class="st5" cx="540.8" cy="550.8" rx="25.1" ry="25.1"/>
		
			<ellipse transform="matrix(0.7325 -0.6807 0.6807 0.7325 -231.354 516.8176)" class="st6" cx="542" cy="552.8" rx="25.7" ry="23.7"/>
		<path class="st7" d="M562.2,530.9c-10.9-11.8-29.4-12.5-41.2-1.5c-11.8,10.9-12.5,29.4-1.5,41.2c10.9,11.8,29.4,12.5,41.2,1.5
			C572.4,561.1,573.1,542.7,562.2,530.9z M522.5,567.8c-9.4-10.1-8.8-26,1.3-35.4c10.1-9.4,26-8.8,35.4,1.3
			c9.4,10.1,8.8,26-1.3,35.4C547.7,578.5,531.9,578,522.5,567.8z"/>
	</g>
</g>
</svg>
