<?xml version="1.0" encoding="UTF-8" standalone="no"?>
<!-- Created with Inkscape (http://www.inkscape.org/) -->

<svg
   xmlns:dc="http://purl.org/dc/elements/1.1/"
   xmlns:cc="http://creativecommons.org/ns#"
   xmlns:rdf="http://www.w3.org/1999/02/22-rdf-syntax-ns#"
   xmlns:svg="http://www.w3.org/2000/svg"
   xmlns="http://www.w3.org/2000/svg"
   xmlns:sodipodi="http://sodipodi.sourceforge.net/DTD/sodipodi-0.dtd"
   xmlns:inkscape="http://www.inkscape.org/namespaces/inkscape"
   width="99.693932mm"
   height="108.83375mm"
   viewBox="0 0 353.24621 385.63139"
   id="svg4593"
   version="1.1"
   inkscape:version="0.91 r13725"
   sodipodi:docname="rocket-flat.svg">
  <metadata
     id="metadata3354">
    <rdf:RDF>
      <cc:Work
         rdf:about="">
        <dc:format>image/svg+xml</dc:format>
        <dc:type
           rdf:resource="http://purl.org/dc/dcmitype/StillImage" />
        <dc:title />
      </cc:Work>
    </rdf:RDF>
  </metadata>
  <sodipodi:namedview
     pagecolor="#ffffff"
     bordercolor="#666666"
     borderopacity="1"
     objecttolerance="10"
     gridtolerance="10"
     guidetolerance="10"
     inkscape:pageopacity="0"
     inkscape:pageshadow="2"
     inkscape:window-width="1916"
     inkscape:window-height="1057"
     id="namedview3407"
     showgrid="false"
     inkscape:zoom="2"
     inkscape:cx="50.936354"
     inkscape:cy="270.57179"
     inkscape:window-x="0"
     inkscape:window-y="19"
     inkscape:window-maximized="1"
     inkscape:current-layer="svg4593" />
  <defs
     id="defs4595" />
  <path
     d="m 352.93975,0.06963007 c 0,0 -214.1375,27.12749993 -251.06,218.33874993 5.1175,23.8725 19.30625,39.16 27.90875,46.41125 l -0.0827,-0.0696 c 8.60125,7.25 26.07,18.64625 50.465,19.64875 C 362.3708,215.63875 352.85705,6.8474776e-8 352.85705,6.8474776e-8 Z"
     style="fill:#000000;fill-opacity:1;fill-rule:nonzero;stroke:none"
     id="path3957"
     inkscape:connector-curvature="0"
     sodipodi:nodetypes="ccccccc" />
  <path
     style="fill:#000000;fill-opacity:1;fill-rule:nonzero;stroke:none"
     d="m 268.15039,232.66211 c -20.25848,19.48755 -45.30443,36.68186 -76.25586,49.72266 10.77155,24.9553 16.17468,59.49585 0.97266,103.20312 53.37776,-59.4931 70.5208,-115.31859 75.2832,-152.92578 z"
     id="path3937"
     inkscape:connector-curvature="0"
     sodipodi:nodetypes="cccc" />
  <path
     style="fill:#000000;fill-opacity:1;fill-rule:nonzero;stroke:none"
     d="m 141.11328,122.02539 c -36.34739,10.47629 -90.052086,36.47297 -141.11328,101 40.477846,-22.36768 75.417247,-22.9023 101.83008,-16.52344 7.71103,-33.13649 21.71232,-61.03206 39.2832,-84.47656 z"
     id="path3949"
     inkscape:connector-curvature="0"
     sodipodi:nodetypes="cccc" />
  <path
     d="m 284.05867,131.66418 c -12.26198,14.22608 -33.77689,15.85447 -48.05535,3.63746 -14.27845,-12.217 -15.91284,-33.65435 -3.6495,-47.879067 12.26199,-14.22608 33.7769,-15.854473 48.05399,-3.637466 14.27846,12.217007 15.91285,33.652993 3.65086,47.879073"
     style="fill:#b3b3b3;fill-opacity:1;fill-rule:nonzero;stroke:none"
     id="bulleye-inner"
     inkscape:connector-curvature="0" />
  <path
     d="M 237.79495,133.30975 C 224.6687,122.03725 223.1662,102.2585 234.4387,89.13225 245.7112,76.006 265.4912,74.5035 278.6162,85.776 c 13.12625,11.27375 14.62875,31.0525 3.35625,44.1775 -11.2725,13.12625 -31.05125,14.62875 -44.1775,3.35625 m 44.13,-51.385 c -15.25375,-13.1 -38.23875,-11.355 -51.33875,3.89875 -13.09875,15.25375 -11.35375,38.23875 3.9,51.33875 15.25375,13.1 38.23875,11.35375 51.33875,-3.9 13.1,-15.25375 11.35375,-38.23875 -3.9,-51.3375"
     style="fill:#ffffff;fill-opacity:1;fill-rule:nonzero;stroke:none"
     id="path3969"
     inkscape:connector-curvature="0" />
</svg>
