<?xml version="1.0" encoding="UTF-8" standalone="no"?>
<!-- Created with Inkscape (http://www.inkscape.org/) -->

<svg
   xmlns:dc="http://purl.org/dc/elements/1.1/"
   xmlns:cc="http://creativecommons.org/ns#"
   xmlns:rdf="http://www.w3.org/1999/02/22-rdf-syntax-ns#"
   xmlns:svg="http://www.w3.org/2000/svg"
   xmlns="http://www.w3.org/2000/svg"
   xmlns:sodipodi="http://sodipodi.sourceforge.net/DTD/sodipodi-0.dtd"
   xmlns:inkscape="http://www.inkscape.org/namespaces/inkscape"
   width="105mm"
   height="74mm"
   viewBox="0 0 372.04724 262.20472"
   id="svg3378"
   version="1.1"
   inkscape:version="0.91 r13725"
   sodipodi:docname="rocket-label.svg">
  <defs
     id="defs3380" />
  <sodipodi:namedview
     id="base"
     pagecolor="#ffffff"
     bordercolor="#666666"
     borderopacity="1.0"
     inkscape:pageopacity="0.0"
     inkscape:pageshadow="2"
     inkscape:zoom="1.979899"
     inkscape:cx="102.23724"
     inkscape:cy="118.1872"
     inkscape:document-units="px"
     inkscape:current-layer="text3420"
     showgrid="false"
     inkscape:window-width="1916"
     inkscape:window-height="1057"
     inkscape:window-x="0"
     inkscape:window-y="19"
     inkscape:window-maximized="1" />
  <metadata
     id="metadata3383">
    <rdf:RDF>
      <cc:Work
         rdf:about="">
        <dc:format>image/svg+xml</dc:format>
        <dc:type
           rdf:resource="http://purl.org/dc/dcmitype/StillImage" />
        <dc:title />
      </cc:Work>
    </rdf:RDF>
  </metadata>
  <g
     inkscape:label="Layer 1"
     inkscape:groupmode="layer"
     id="layer1"
     transform="translate(0,-790.15748)">
    <g
       id="g3428"
       transform="matrix(0.59431501,0,0,0.59431501,85.839093,351.52311)">
      <path
         inkscape:connector-curvature="0"
         id="path3913"
         style="fill:#689f38;fill-opacity:1;fill-rule:nonzero;stroke:none"
         d="m 229.27324,918.28972 c 0,0 10.7173,63.99302 -48.71695,126.88818 l -1.75802,-0.027 c 21.67305,-62.31206 -24.18338,-93.85016 -24.18338,-93.85016" />
      <path
         inkscape:connector-curvature="0"
         id="path3917"
         style="fill:#689f38;fill-opacity:1;fill-rule:nonzero;stroke:none"
         d="m 276.47652,806.01387 c 0,0 2.71572,136.79103 -107.21001,176.19457 -11.72616,-12.7996 -22.59927,-8.7563 -29.2182,-14.3349" />
      <path
         inkscape:connector-curvature="0"
         id="path3921"
         style="fill:#689f38;fill-opacity:1;fill-rule:nonzero;stroke:none"
         d="m 278.50519,803.60702 c 0,0 4.60988,125.58737 -110.09415,168.87522 -15.35787,-0.6311 -22.94709,-0.044 -28.36201,-4.6091" />
      <path
         inkscape:connector-curvature="0"
         id="path3925"
         style="fill:#689f38;fill-opacity:1;fill-rule:nonzero;stroke:none"
         d="m 172.91497,875.99993 c 0,0 -59.79859,-3.62857 -115.536596,66.80944 l 1.231557,-0.19044 c 54.197179,-26.2672 96.814569,5.28031 96.814569,5.28031" />
      <path
         inkscape:connector-curvature="0"
         id="path3929"
         style="fill:#689f38;fill-opacity:1;fill-rule:nonzero;stroke:none"
         d="m 276.52852,806.0577 c 0,0 -132.63281,21.16469 -152.85868,136.17481 2.37498,11.46173 10.31911,19.50433 16.93804,25.08283" />
      <path
         inkscape:connector-curvature="0"
         id="path3933"
         style="fill:#689f38;fill-opacity:1;fill-rule:nonzero;stroke:none"
         d="m 278.55719,803.65086 c 0,0 -119.91355,17.02697 -143.15811,137.40402 3.22172,15.02896 -0.71375,22.29786 4.70116,26.86216" />
      <path
         inkscape:connector-curvature="0"
         id="path3937"
         style="fill:#9acb61;fill-opacity:1;fill-rule:nonzero;stroke:none"
         d="m 226.09842,918.7688 c 0,0 12.68464,59.52474 -47.30046,126.3822 21.67305,-62.31216 -23.16902,-95.05336 -23.16902,-95.05336" />
      <path
         inkscape:connector-curvature="0"
         id="path3941"
         style="fill:#689f38;fill-opacity:1;fill-rule:nonzero;stroke:none"
         d="m 279.57158,802.44747 c 0,0 9.7352,137.11128 -109.10181,180.77527 -11.69862,-0.4005 -25.83122,-7.3641 -32.45016,-12.9427" />
      <path
         inkscape:connector-curvature="0"
         id="path3945"
         style="fill:#8bc34a;fill-opacity:1;fill-rule:nonzero;stroke:none"
         d="m 279.51952,802.40364 c 0,0 5.98938,135.75537 -108.71464,179.0432 -15.35788,-0.6311 -26.35533,-7.8056 -31.77024,-12.3698" />
      <path
         inkscape:connector-curvature="0"
         id="path3949"
         style="fill:#9acb61;fill-opacity:1;fill-rule:nonzero;stroke:none"
         d="m 173.9293,874.79654 c 0,0 -60.81296,-2.42455 -116.550958,68.01264 57.743908,-31.90873 97.603868,6.74326 97.603868,6.74326" />
      <path
         inkscape:connector-curvature="0"
         id="path3953"
         style="fill:#689f38;fill-opacity:1;fill-rule:nonzero;stroke:none"
         d="m 277.54292,804.85432 c 0,0 -137.49373,20.6697 -157.7196,135.67904 2.37419,11.46248 11.63015,24.21178 18.24829,29.79028" />
      <path
         inkscape:connector-curvature="0"
         id="path3957"
         style="fill:#9acb61;fill-opacity:1;fill-rule:nonzero;stroke:none"
         d="m 279.57158,802.44747 c 0,0 -134.81027,17.07812 -158.05483,137.4552 3.22172,15.02897 12.15425,24.65317 17.56995,29.21817" />
      <path
         inkscape:connector-curvature="0"
         id="bulleye-inner"
         style="fill:#ff5722;fill-opacity:1;fill-rule:nonzero;stroke:none"
         d="m 236.20749,885.29283 c -7.71953,8.95603 -21.26424,9.98118 -30.25325,2.28996 -8.989,-7.69121 -10.01793,-21.18709 -2.29754,-30.14227 7.71954,-8.95603 21.26425,-9.98118 30.25239,-2.28996 8.98901,7.69121 10.01794,21.18624 2.2984,30.14227" />
      <path
         inkscape:transform-center-y="1.7116989"
         inkscape:transform-center-x="12.814285"
         style="fill:#dd2c00;fill-opacity:1;fill-rule:nonzero;stroke:none"
         d="m 205.12605,855.49819 c -4.15239,3.88011 -7.52047,10.81503 -7.14352,16.93053 0.54686,8.88649 6.33884,16.57649 17.27507,18.21839 -6.70134,-2.73498 -11.67648,-9.51973 -12.18302,-17.73857 -0.6557,-10.64055 6.41333,-19.81769 16.00586,-21.15878 -0.16321,0.006 -0.3259,0.008 -0.48982,0.0183 -4.75625,0.29295 -10.23495,0.71234 -13.46457,3.73021 z"
         id="bulleye-shadow"
         inkscape:connector-curvature="0"
         sodipodi:nodetypes="sccsccs" />
      <path
         inkscape:connector-curvature="0"
         id="path3969"
         style="fill:#37474f;fill-opacity:1;fill-rule:nonzero;stroke:none"
         d="m 207.08216,886.3288 c -8.26363,-7.0966 -9.20953,-19.54832 -2.11292,-27.81195 7.0966,-8.26363 19.5491,-9.20953 27.81194,-2.11293 8.26364,7.09739 9.20953,19.54911 2.11293,27.81195 -7.0966,8.26363 -19.54831,9.20953 -27.81195,2.11293 m 27.78205,-32.34943 c -9.603,-8.24711 -24.07321,-7.14854 -32.32032,2.45446 -8.24631,9.603 -7.14775,24.07321 2.45525,32.32031 9.603,8.24711 24.07321,7.14776 32.32031,-2.45524 8.24711,-9.603 7.14776,-24.07321 -2.45524,-32.31953" />
    </g>
    <g
       style="font-style:normal;font-variant:normal;font-weight:300;font-stretch:normal;font-size:40px;line-height:125%;font-family:Roboto;-inkscape-font-specification:'Roboto Light';letter-spacing:0px;word-spacing:0px;fill:#ff0000;fill-opacity:1;stroke:none;stroke-width:1px;stroke-linecap:butt;stroke-linejoin:miter;stroke-opacity:1"
       id="text3420">
      <path
         d="m 38.18605,1020.3622 0,-28.43752 7.480469,0 q 4.589844,0 6.933594,1.875 2.363281,1.85547 2.363281,5.41016 0,2.57816 -1.308594,4.27736 -1.308593,1.6992 -3.691406,2.168 2.695313,0.3515 4.492188,2.3437 1.796875,1.9727 1.796875,4.5313 0,3.6328 -2.363282,5.7421 -2.34375,2.0899 -6.542968,2.0899 l -9.160157,0 z m 1.054688,-14.043 0,12.9883 8.222656,0 q 3.613281,0 5.664063,-1.7773 2.070312,-1.7969 2.070312,-4.961 0,-2.6953 -1.992187,-4.4336 -1.992188,-1.7578 -5.332032,-1.8164 l -8.632812,0 z m 0,-1.0547 6.816406,0 q 3.886719,0 5.859375,-1.4843 1.972656,-1.504 1.972656,-4.64849 0,-6.05468 -7.988281,-6.15234 l -6.660156,0 0,12.28513 z"
         style="font-style:normal;font-variant:normal;font-weight:300;font-stretch:normal;font-family:Roboto;-inkscape-font-specification:'Roboto Light';fill:#ff0000"
         id="path3385"
         inkscape:connector-curvature="0" />
      <path
         d="m 63.400894,1019.3075 14.589844,0 0,1.0547 -15.664063,0 0,-28.43752 1.074219,0 0,27.38282 z"
         style="font-style:normal;font-variant:normal;font-weight:300;font-stretch:normal;font-family:Roboto;-inkscape-font-specification:'Roboto Light';fill:#ff0000"
         id="path3387"
         inkscape:connector-curvature="0" />
      <path
         d="m 84.787613,1020.3622 -1.054688,0 0,-28.43752 1.054688,0 0,28.43752 z"
         style="font-style:normal;font-variant:normal;font-weight:300;font-stretch:normal;font-family:Roboto;-inkscape-font-specification:'Roboto Light';fill:#ff0000"
         id="path3389"
         inkscape:connector-curvature="0" />
      <path
         d="m 113.90871,1020.3622 -1.05469,0 -18.359376,-26.64064 0,26.64064 -1.074219,0 0,-28.43752 1.074219,0 18.359376,26.58202 0,-26.58202 1.05469,0 0,28.43752 z"
         style="font-style:normal;font-variant:normal;font-weight:300;font-stretch:normal;font-family:Roboto;-inkscape-font-specification:'Roboto Light';fill:#ff0000"
         id="path3391"
         inkscape:connector-curvature="0" />
      <path
         d="m 127.30714,1005.4012 -4.55078,4.1993 0,10.7617 -1.05468,0 0,-28.43752 1.05468,0 0,16.44532 4.6875,-4.5898 11.79688,-11.85552 1.52344,0 -12.67579,12.75392 13.65235,15.6836 -1.36719,0 -13.06641,-14.9609 z"
         style="font-style:normal;font-variant:normal;font-weight:300;font-stretch:normal;font-family:Roboto;-inkscape-font-specification:'Roboto Light';fill:#ff0000"
         id="path3393"
         inkscape:connector-curvature="0" />
      <path
         d="m 162.4048,1006.2606 -14.25781,0 0,13.0469 16.25,0 0,1.0547 -17.30469,0 0,-28.43752 17.30469,0 0,1.05469 -16.25,0 0,12.22653 14.25781,0 0,1.0547 z"
         style="font-style:normal;font-variant:normal;font-weight:300;font-stretch:normal;font-family:Roboto;-inkscape-font-specification:'Roboto Light';fill:#ff0000"
         id="path3395"
         inkscape:connector-curvature="0" />
      <path
         d="m 190.39308,1020.3622 -1.05469,0 -18.35937,-26.64064 0,26.64064 -1.07422,0 0,-28.43752 1.07422,0 18.35937,26.58202 0,-26.58202 1.05469,0 0,28.43752 z"
         style="font-style:normal;font-variant:normal;font-weight:300;font-stretch:normal;font-family:Roboto;-inkscape-font-specification:'Roboto Light';fill:#ff0000"
         id="path3397"
         inkscape:connector-curvature="0" />
    </g>
    <g
       style="font-style:normal;font-variant:normal;font-weight:300;font-stretch:normal;font-size:40px;line-height:125%;font-family:'Roboto Mono Thin for Powerline';-inkscape-font-specification:'Roboto Mono Thin for Powerline Light';letter-spacing:0px;word-spacing:0px;fill:#000000;fill-opacity:1;stroke:none;stroke-width:1px;stroke-linecap:butt;stroke-linejoin:miter;stroke-opacity:1"
       id="text3424"
       transform="translate(0,14)">
      <path
         d="m 205.81432,993.80316 -8.35938,0 0,12.16794 -1.01562,0 0,-28.43747 7.71484,0 q 1.75781,0.0391 3.32031,0.64453 1.5625,0.58594 2.71485,1.66016 1.17187,1.07422 1.83593,2.57812 0.6836,1.48438 0.6836,3.32032 0,1.48437 -0.44922,2.69531 -0.42969,1.1914 -1.21094,2.14844 -0.78125,0.95703 -1.875,1.67968 -1.07422,0.72266 -2.36328,1.23047 l 6.97266,12.20704 0,0.2734 -1.07422,0 -6.89453,-12.16794 z m -8.35938,-1.05469 7.55859,0 q 1.44532,-0.0391 2.65625,-0.60546 1.23047,-0.56641 2.10938,-1.50391 0.87891,-0.95703 1.36719,-2.20703 0.50781,-1.26953 0.50781,-2.69531 0,-1.6211 -0.60547,-2.92969 -0.58594,-1.3086 -1.60156,-2.22656 -1.01563,-0.9375 -2.40235,-1.44532 -1.36718,-0.50781 -2.91015,-0.54687 l -6.67969,0 0,14.16015 z"
         id="path3372"
         inkscape:connector-curvature="0" />
      <path
         d="m 237.20103,993.88129 q -0.0195,1.38672 -0.2539,2.85156 -0.23438,1.46484 -0.70313,2.85156 -0.46875,1.38669 -1.21093,2.61719 -0.72266,1.2305 -1.73829,2.168 -1.01562,0.9179 -2.34375,1.4648 -1.30859,0.5274 -2.92968,0.5274 -1.6211,0 -2.94922,-0.5274 -1.3086,-0.5469 -2.34375,-1.4648 -1.01563,-0.9375 -1.75781,-2.168 -0.74219,-1.2305 -1.23047,-2.61719 -0.46875,-1.38672 -0.72266,-2.85156 -0.23437,-1.46484 -0.25391,-2.85156 l 0,-4.25782 q 0.0195,-1.38671 0.25391,-2.85156 0.23438,-1.46484 0.70313,-2.85156 0.48828,-1.38672 1.21093,-2.61719 0.74219,-1.23047 1.75782,-2.14844 1.03515,-0.9375 2.34375,-1.46484 1.30859,-0.54687 2.94921,-0.54687 1.64063,0 2.94922,0.54687 1.3086,0.52734 2.32422,1.46484 1.03516,0.91797 1.75781,2.14844 0.74219,1.23047 1.21094,2.61719 0.48828,1.38672 0.72266,2.85156 0.23437,1.46485 0.2539,2.85156 l 0,4.25782 z m -1.03515,-4.29688 q -0.0195,-1.25 -0.21485,-2.57812 -0.19531,-1.32813 -0.60546,-2.57813 -0.41016,-1.26953 -1.05469,-2.40234 -0.64453,-1.13281 -1.5625,-1.97266 -0.89844,-0.85937 -2.08985,-1.34765 -1.17187,-0.50782 -2.65625,-0.50782 -1.48437,0 -2.65625,0.50782 -1.17187,0.48828 -2.08984,1.34765 -0.89844,0.83985 -1.54297,1.97266 -0.625,1.13281 -1.03515,2.40234 -0.41016,1.26953 -0.60547,2.59766 -0.19532,1.32812 -0.21485,2.55859 l 0,4.29688 q 0.0195,1.25 0.21485,2.57812 0.19531,1.32813 0.60547,2.59766 0.41015,1.26953 1.05468,2.40233 0.64453,1.1328 1.54297,1.9922 0.91797,0.8594 2.08985,1.3672 1.1914,0.4883 2.67578,0.4883 1.48437,0 2.65625,-0.4883 1.1914,-0.5078 2.08984,-1.3672 0.89844,-0.8594 1.54297,-1.9922 0.64453,-1.1328 1.05469,-2.40233 0.41015,-1.26953 0.58593,-2.59766 0.19532,-1.32812 0.21485,-2.57812 l 0,-4.29688 z"
         id="path3374"
         inkscape:connector-curvature="0" />
      <path
         d="m 261.10728,997.26019 q -0.21484,1.875 -0.91796,3.53511 -0.6836,1.6602 -1.83594,2.9102 -1.15235,1.2305 -2.75391,1.9531 -1.58203,0.7227 -3.59375,0.7032 -1.64062,0 -2.94922,-0.5469 -1.30859,-0.5469 -2.34375,-1.4649 -1.01562,-0.9179 -1.75781,-2.1484 -0.72266,-1.2305 -1.21094,-2.61719 -0.48828,-1.38672 -0.72265,-2.83203 -0.23438,-1.46484 -0.25391,-2.87109 l 0,-4.25782 q 0.0195,-1.38671 0.25391,-2.85156 0.23437,-1.48437 0.72265,-2.85156 0.48828,-1.38672 1.23047,-2.61719 0.74219,-1.23047 1.75781,-2.14844 1.01563,-0.91796 2.32422,-1.44531 1.3086,-0.54687 2.94922,-0.5664 1.99219,-0.0195 3.59375,0.70312 1.60156,0.70313 2.75391,1.93359 1.15234,1.23047 1.83594,2.89063 0.70312,1.66016 0.91796,3.53516 l -1.03515,0 q -0.27344,-1.64063 -0.89844,-3.10547 -0.60547,-1.46485 -1.60156,-2.5586 -0.9961,-1.09375 -2.38281,-1.71875 -1.36719,-0.64453 -3.1836,-0.625 -1.46484,0.0195 -2.65625,0.52735 -1.17187,0.48828 -2.07031,1.34765 -0.89844,0.83985 -1.5625,1.97266 -0.64453,1.13281 -1.07422,2.40234 -0.41016,1.25 -0.60547,2.57813 -0.19531,1.32812 -0.21484,2.55859 l 0,4.29688 q 0.0195,1.25 0.21484,2.57812 0.19531,1.32813 0.60547,2.59766 0.42969,1.25003 1.07422,2.38283 0.64453,1.1328 1.54297,1.9922 0.91797,0.8593 2.08984,1.3672 1.17188,0.5078 2.65625,0.5078 1.83594,0.019 3.22266,-0.6055 1.38672,-0.6445 2.36328,-1.7383 0.99609,-1.0937 1.60156,-2.5586 0.60547,-1.48435 0.87891,-3.14451 l 1.03515,0 z"
         id="path3376"
         inkscape:connector-curvature="0" />
      <path
         d="m 273.60728,991.04926 -4.16015,4.12109 0,10.80075 -1.01563,0 0,-28.43747 1.01563,0 0,16.38672 4.23828,-4.49219 10.87891,-11.89453 1.44531,0 -11.66016,12.77344 12.5586,15.66403 -1.3086,0 -11.99219,-14.92184 z"
         id="path3378"
         inkscape:connector-curvature="0" />
      <path
         d="m 306.49791,991.86957 -13.22266,0 0,13.04683 15.07813,0 0,1.0547 -16.11328,0 0,-28.43747 16.11328,0 0,1.05469 -15.07813,0 0,12.22656 13.22266,0 0,1.05469 z"
         id="path3380"
         inkscape:connector-curvature="0" />
      <path
         d="m 333.86119,978.58832 -9.35547,0 0,27.38278 -1.05469,0 0.0391,-27.38278 -9.375,0 0,-1.05469 19.74609,0 0,1.05469 z"
         id="path3382"
         inkscape:connector-curvature="0" />
    </g>
  </g>
</svg>
